<svg width="1920" height="808" viewBox="0 0 1920 808" fill="none" xmlns="http://www.w3.org/2000/svg">
<rect x="-6" width="1920" height="808" fill="white"/>
<path d="M51.152 678.608C51.152 683.984 50.832 689.008 50.192 693.68C49.552 698.352 48.432 702.448 46.832 705.968C45.232 709.488 42.992 712.24 40.112 714.224C37.232 716.208 33.584 717.2 29.168 717.2C29.04 717.2 28.88 717.2 28.688 717.2C28.496 717.2 28.304 717.168 28.112 717.104L28.112 697.904C28.368 697.968 28.624 698.032 28.88 698.096C29.136 698.096 29.424 698.096 29.744 698.096C31.728 698.096 33.296 697.36 34.448 695.888C35.536 694.352 36.304 692.24 36.752 689.552C37.2 686.864 37.424 683.696 37.424 680.048C37.424 678.576 37.392 677.072 37.328 675.536C37.2 673.936 37.04 672.4 36.848 670.928C36.592 669.456 36.24 668.144 35.792 666.992C35.344 665.776 34.8 664.848 34.16 664.208C33.456 663.504 32.592 663.152 31.568 663.152C30.224 663.152 29.168 663.888 28.4 665.36C27.568 666.768 26.928 668.752 26.48 671.312C25.968 673.808 25.52 676.624 25.136 679.76C24.752 682.832 24.304 686.032 23.792 689.36C23.216 692.688 22.48 695.92 21.584 699.056C20.624 702.192 19.376 705.008 17.84 707.504C16.304 710 14.32 711.984 11.888 713.456C9.456 714.928 6.512 715.664 3.056 715.664C-0.464003 715.664 -3.472 714.8 -5.968 713.072C-8.528 711.28 -10.64 708.784 -12.304 705.584C-13.968 702.384 -15.184 698.608 -15.952 694.256C-16.784 689.904 -17.2 685.168 -17.2 680.048C-17.2 674.8 -16.784 670.064 -15.952 665.84C-15.12 661.552 -13.872 657.904 -12.208 654.896C-10.608 651.824 -8.56001 649.488 -6.06401 647.888C-3.63201 646.224 -0.752004 645.392 2.57599 645.392L3.91999 645.392L3.92 664.304L3.15199 664.304C1.808 664.304 0.623996 664.88 -0.400006 666.032C-1.48801 667.184 -2.32001 668.88 -2.896 671.12C-3.53601 673.296 -3.85601 675.952 -3.85601 679.088C-3.85601 682.864 -3.60001 685.968 -3.088 688.4C-2.64 690.832 -2 692.624 -1.16801 693.776C-0.400005 694.928 0.495997 695.504 1.52 695.504C2.8 695.504 3.824 694.768 4.592 693.296C5.296 691.824 5.872 689.84 6.32 687.344C6.768 684.848 7.184 682.064 7.568 678.992C7.952 675.856 8.4 672.624 8.91199 669.296C9.424 665.904 10.128 662.672 11.024 659.6C11.92 656.464 13.136 653.648 14.672 651.152C16.144 648.656 18.064 646.672 20.432 645.2C22.736 643.728 25.584 642.992 28.976 642.992C34.288 642.992 38.576 644.528 41.84 647.6C45.104 650.672 47.472 654.896 48.944 660.272C50.416 665.584 51.152 671.696 51.152 678.608ZM50 630.59L-16.048 630.59L-16.048 561.854L-1.55201 561.854L-1.552 611.006L9.58399 611.006L9.58399 567.998L23.6 567.998L23.6 611.006L35.504 611.006L35.504 561.086L50 561.086L50 630.59ZM50 547.715L-16.048 547.715L-16.048 492.803C-16.048 488.003 -15.056 484.035 -13.072 480.899C-11.088 477.763 -8.46402 475.395 -5.20002 473.795C-2.00001 472.195 1.51999 471.395 5.35999 471.395C9.51999 471.395 13.328 472.387 16.784 474.371C20.176 476.355 22.864 479.331 24.848 483.299L50 469.859L50 491.939L28.016 502.883L28.016 528.227L50 528.227L50 547.715ZM13.616 528.227L13.616 499.235C13.616 496.867 12.912 494.979 11.504 493.571C10.096 492.163 8.20799 491.459 5.83999 491.459C4.30399 491.459 2.99199 491.779 1.90399 492.419C0.751985 493.059 -0.112013 493.955 -0.68801 495.107C-1.26401 496.259 -1.55201 497.635 -1.55201 499.235L-1.55201 528.227L13.616 528.227ZM50 433.882L-16.048 465.658L-16.048 443.962L16.112 429.562C17.328 428.922 18.864 428.25 20.72 427.546C22.512 426.842 24.336 426.106 26.192 425.338C28.048 424.57 29.712 423.93 31.184 423.418L31.184 422.746C29.84 422.234 28.272 421.658 26.48 421.018C24.688 420.314 22.896 419.578 21.104 418.81C19.248 418.042 17.584 417.338 16.112 416.698L-16.048 402.106L-16.048 381.274L50 413.146L50 433.882ZM50 371.934L-16.048 371.934L-16.048 352.446L50 352.446L50 371.934ZM51.152 297.529C51.152 306.745 49.872 314.425 47.312 320.569C44.688 326.713 40.848 331.321 35.792 334.393C30.736 337.465 24.464 339.001 16.976 339.001C6.03198 339.001 -2.38402 335.481 -8.27202 328.441C-14.224 321.337 -17.2 311.001 -17.2 297.433C-17.2 289.881 -16.048 283.225 -13.744 277.465C-11.504 271.705 -8.30402 267.225 -4.14402 264.025C-0.0480205 260.761 4.81598 259.129 10.448 259.129L10.448 278.137C7.69598 278.137 5.35998 278.969 3.43998 280.633C1.45598 282.233 -0.0480214 284.505 -1.07202 287.449C-2.16002 290.393 -2.70402 293.817 -2.70402 297.721C-2.70402 302.329 -1.90402 306.201 -0.304023 309.337C1.23198 312.473 3.37598 314.873 6.12798 316.537C8.87998 318.137 12.08 318.937 15.728 318.937L18.128 318.937C21.776 318.937 25.008 318.137 27.824 316.537C30.576 314.873 32.752 312.505 34.352 309.433C35.888 306.297 36.656 302.489 36.656 298.009C36.656 293.785 36.176 290.169 35.216 287.161C34.192 284.089 32.72 281.753 30.8 280.153C28.88 278.489 26.576 277.657 23.888 277.657L23.888 259.033C29.328 259.033 34.096 260.601 38.192 263.737C42.288 266.873 45.488 271.321 47.792 277.081C50.032 282.777 51.152 289.593 51.152 297.529ZM50 245.652L-16.048 245.652L-16.048 176.916L-1.55202 176.916L-1.55202 226.068L9.58398 226.068L9.58397 183.06L23.6 183.06L23.6 226.068L35.504 226.068L35.504 176.148L50 176.148L50 245.652ZM51.152 127.545C51.152 132.921 50.832 137.945 50.192 142.617C49.552 147.289 48.432 151.385 46.832 154.905C45.232 158.425 42.992 161.177 40.112 163.161C37.232 165.145 33.584 166.137 29.168 166.137C29.04 166.137 28.88 166.137 28.688 166.137C28.496 166.137 28.304 166.105 28.112 166.041L28.112 146.841C28.368 146.905 28.624 146.969 28.88 147.033C29.136 147.033 29.424 147.033 29.744 147.033C31.728 147.033 33.296 146.297 34.448 144.825C35.536 143.289 36.304 141.177 36.752 138.489C37.2 135.801 37.424 132.633 37.424 128.985C37.424 127.513 37.392 126.009 37.328 124.473C37.2 122.873 37.04 121.337 36.848 119.865C36.592 118.393 36.24 117.081 35.792 115.929C35.344 114.713 34.8 113.785 34.16 113.145C33.456 112.441 32.592 112.089 31.568 112.089C30.224 112.089 29.168 112.825 28.4 114.297C27.568 115.705 26.928 117.689 26.48 120.249C25.968 122.745 25.52 125.561 25.136 128.697C24.752 131.769 24.304 134.969 23.792 138.297C23.216 141.625 22.48 144.857 21.584 147.993C20.624 151.129 19.376 153.945 17.84 156.441C16.304 158.937 14.32 160.921 11.888 162.393C9.45597 163.865 6.51197 164.601 3.05597 164.601C-0.464027 164.601 -3.47203 163.737 -5.96802 162.009C-8.52803 160.217 -10.64 157.721 -12.304 154.521C-13.968 151.321 -15.184 147.545 -15.952 143.193C-16.784 138.841 -17.2 134.105 -17.2 128.985C-17.2 123.737 -16.784 119.001 -15.952 114.777C-15.12 110.489 -13.872 106.841 -12.208 103.833C-10.608 100.761 -8.56003 98.4255 -6.06403 96.8255C-3.63203 95.1615 -0.752028 94.3295 2.57597 94.3295L3.91997 94.3295L3.91997 113.241L3.15197 113.241C1.80797 113.241 0.623972 113.817 -0.40003 114.969C-1.48803 116.121 -2.32003 117.817 -2.89603 120.057C-3.53603 122.233 -3.85603 124.889 -3.85603 128.025C-3.85603 131.801 -3.60003 134.905 -3.08803 137.337C-2.64003 139.769 -2.00003 141.561 -1.16803 142.713C-0.400029 143.865 0.495973 144.441 1.51998 144.441C2.79997 144.441 3.82397 143.705 4.59197 142.233C5.29597 140.761 5.87197 138.777 6.31997 136.281C6.76797 133.785 7.18397 131.001 7.56797 127.929C7.95197 124.793 8.39997 121.561 8.91197 118.233C9.42397 114.841 10.128 111.609 11.024 108.537C11.92 105.401 13.136 102.585 14.672 100.089C16.144 97.5935 18.064 95.6095 20.432 94.1375C22.736 92.6655 25.584 91.9295 28.976 91.9295C34.288 91.9295 38.576 93.4655 41.84 96.5375C45.104 99.6095 47.472 103.833 48.944 109.209C50.416 114.521 51.152 120.633 51.152 127.545Z" fill="#0D7BFF"/>
<path d="M1923.15 678.608C1923.15 683.984 1922.83 689.008 1922.19 693.68C1921.55 698.352 1920.43 702.448 1918.83 705.968C1917.23 709.488 1914.99 712.24 1912.11 714.224C1909.23 716.208 1905.58 717.2 1901.17 717.2C1901.04 717.2 1900.88 717.2 1900.69 717.2C1900.5 717.2 1900.3 717.168 1900.11 717.104L1900.11 697.904C1900.37 697.968 1900.62 698.032 1900.88 698.096C1901.14 698.096 1901.42 698.096 1901.74 698.096C1903.73 698.096 1905.3 697.36 1906.45 695.888C1907.54 694.352 1908.3 692.24 1908.75 689.552C1909.2 686.864 1909.42 683.696 1909.42 680.048C1909.42 678.576 1909.39 677.072 1909.33 675.536C1909.2 673.936 1909.04 672.4 1908.85 670.928C1908.59 669.456 1908.24 668.144 1907.79 666.992C1907.34 665.776 1906.8 664.848 1906.16 664.208C1905.46 663.504 1904.59 663.152 1903.57 663.152C1902.22 663.152 1901.17 663.888 1900.4 665.36C1899.57 666.768 1898.93 668.752 1898.48 671.312C1897.97 673.808 1897.52 676.624 1897.14 679.76C1896.75 682.832 1896.3 686.032 1895.79 689.36C1895.22 692.688 1894.48 695.92 1893.58 699.056C1892.62 702.192 1891.38 705.008 1889.84 707.504C1888.3 710 1886.32 711.984 1883.89 713.456C1881.46 714.928 1878.51 715.664 1875.06 715.664C1871.54 715.664 1868.53 714.8 1866.03 713.072C1863.47 711.28 1861.36 708.784 1859.7 705.584C1858.03 702.384 1856.82 698.608 1856.05 694.256C1855.22 689.904 1854.8 685.168 1854.8 680.048C1854.8 674.8 1855.22 670.064 1856.05 665.84C1856.88 661.552 1858.13 657.904 1859.79 654.896C1861.39 651.824 1863.44 649.488 1865.94 647.888C1868.37 646.224 1871.25 645.392 1874.58 645.392L1875.92 645.392L1875.92 664.304L1875.15 664.304C1873.81 664.304 1872.62 664.88 1871.6 666.032C1870.51 667.184 1869.68 668.88 1869.1 671.12C1868.46 673.296 1868.14 675.952 1868.14 679.088C1868.14 682.864 1868.4 685.968 1868.91 688.4C1869.36 690.832 1870 692.624 1870.83 693.776C1871.6 694.928 1872.5 695.504 1873.52 695.504C1874.8 695.504 1875.82 694.768 1876.59 693.296C1877.3 691.824 1877.87 689.84 1878.32 687.344C1878.77 684.848 1879.18 682.064 1879.57 678.992C1879.95 675.856 1880.4 672.624 1880.91 669.296C1881.42 665.904 1882.13 662.672 1883.02 659.6C1883.92 656.464 1885.14 653.648 1886.67 651.152C1888.14 648.656 1890.06 646.672 1892.43 645.2C1894.74 643.728 1897.58 642.992 1900.98 642.992C1906.29 642.992 1910.58 644.528 1913.84 647.6C1917.1 650.672 1919.47 654.896 1920.94 660.272C1922.42 665.584 1923.15 671.696 1923.15 678.608ZM1922 630.59L1855.95 630.59L1855.95 561.854L1870.45 561.854L1870.45 611.006L1881.58 611.006L1881.58 567.998L1895.6 567.998L1895.6 611.006L1907.5 611.006L1907.5 561.086L1922 561.086L1922 630.59ZM1922 547.715L1855.95 547.715L1855.95 492.803C1855.95 488.003 1856.94 484.035 1858.93 480.899C1860.91 477.763 1863.54 475.395 1866.8 473.795C1870 472.195 1873.52 471.395 1877.36 471.395C1881.52 471.395 1885.33 472.387 1888.78 474.371C1892.18 476.355 1894.86 479.331 1896.85 483.299L1922 469.859L1922 491.939L1900.02 502.883L1900.02 528.227L1922 528.227L1922 547.715ZM1885.62 528.227L1885.62 499.235C1885.62 496.867 1884.91 494.979 1883.5 493.571C1882.1 492.163 1880.21 491.459 1877.84 491.459C1876.3 491.459 1874.99 491.779 1873.9 492.419C1872.75 493.059 1871.89 493.955 1871.31 495.107C1870.74 496.259 1870.45 497.635 1870.45 499.235L1870.45 528.227L1885.62 528.227ZM1922 433.882L1855.95 465.658L1855.95 443.962L1888.11 429.562C1889.33 428.922 1890.86 428.25 1892.72 427.546C1894.51 426.842 1896.34 426.106 1898.19 425.338C1900.05 424.57 1901.71 423.93 1903.18 423.418L1903.18 422.746C1901.84 422.234 1900.27 421.658 1898.48 421.018C1896.69 420.314 1894.9 419.578 1893.1 418.81C1891.25 418.042 1889.58 417.338 1888.11 416.698L1855.95 402.106L1855.95 381.274L1922 413.146L1922 433.882ZM1922 371.934L1855.95 371.934L1855.95 352.446L1922 352.446L1922 371.934ZM1923.15 297.529C1923.15 306.745 1921.87 314.425 1919.31 320.569C1916.69 326.713 1912.85 331.321 1907.79 334.393C1902.74 337.465 1896.46 339.001 1888.98 339.001C1878.03 339.001 1869.62 335.481 1863.73 328.441C1857.78 321.337 1854.8 311.001 1854.8 297.433C1854.8 289.881 1855.95 283.225 1858.26 277.465C1860.5 271.705 1863.7 267.225 1867.86 264.025C1871.95 260.761 1876.82 259.129 1882.45 259.129L1882.45 278.137C1879.7 278.137 1877.36 278.969 1875.44 280.633C1873.46 282.233 1871.95 284.505 1870.93 287.449C1869.84 290.393 1869.3 293.817 1869.3 297.721C1869.3 302.329 1870.1 306.201 1871.7 309.337C1873.23 312.473 1875.38 314.873 1878.13 316.537C1880.88 318.137 1884.08 318.937 1887.73 318.937L1890.13 318.937C1893.78 318.937 1897.01 318.137 1899.82 316.537C1902.58 314.873 1904.75 312.505 1906.35 309.433C1907.89 306.297 1908.66 302.489 1908.66 298.009C1908.66 293.785 1908.18 290.169 1907.22 287.161C1906.19 284.089 1904.72 281.753 1902.8 280.153C1900.88 278.489 1898.58 277.657 1895.89 277.657L1895.89 259.033C1901.33 259.033 1906.1 260.601 1910.19 263.737C1914.29 266.873 1917.49 271.321 1919.79 277.081C1922.03 282.777 1923.15 289.593 1923.15 297.529ZM1922 245.652L1855.95 245.652L1855.95 176.916L1870.45 176.916L1870.45 226.068L1881.58 226.068L1881.58 183.06L1895.6 183.06L1895.6 226.068L1907.5 226.068L1907.5 176.148L1922 176.148L1922 245.652ZM1923.15 127.545C1923.15 132.921 1922.83 137.945 1922.19 142.617C1921.55 147.289 1920.43 151.385 1918.83 154.905C1917.23 158.425 1914.99 161.177 1912.11 163.161C1909.23 165.145 1905.58 166.137 1901.17 166.137C1901.04 166.137 1900.88 166.137 1900.69 166.137C1900.5 166.137 1900.3 166.105 1900.11 166.041L1900.11 146.841C1900.37 146.905 1900.62 146.969 1900.88 147.033C1901.14 147.033 1901.42 147.033 1901.74 147.033C1903.73 147.033 1905.3 146.297 1906.45 144.825C1907.54 143.289 1908.3 141.177 1908.75 138.489C1909.2 135.801 1909.42 132.633 1909.42 128.985C1909.42 127.513 1909.39 126.009 1909.33 124.473C1909.2 122.873 1909.04 121.337 1908.85 119.865C1908.59 118.393 1908.24 117.081 1907.79 115.929C1907.34 114.713 1906.8 113.785 1906.16 113.145C1905.46 112.441 1904.59 112.089 1903.57 112.089C1902.22 112.089 1901.17 112.825 1900.4 114.297C1899.57 115.705 1898.93 117.689 1898.48 120.249C1897.97 122.745 1897.52 125.561 1897.14 128.697C1896.75 131.769 1896.3 134.969 1895.79 138.297C1895.22 141.625 1894.48 144.857 1893.58 147.993C1892.62 151.129 1891.38 153.945 1889.84 156.441C1888.3 158.937 1886.32 160.921 1883.89 162.393C1881.46 163.865 1878.51 164.601 1875.06 164.601C1871.54 164.601 1868.53 163.737 1866.03 162.009C1863.47 160.217 1861.36 157.721 1859.7 154.521C1858.03 151.321 1856.82 147.545 1856.05 143.193C1855.22 138.841 1854.8 134.105 1854.8 128.985C1854.8 123.737 1855.22 119.001 1856.05 114.777C1856.88 110.489 1858.13 106.841 1859.79 103.833C1861.39 100.761 1863.44 98.4255 1865.94 96.8255C1868.37 95.1615 1871.25 94.3295 1874.58 94.3295L1875.92 94.3295L1875.92 113.241L1875.15 113.241C1873.81 113.241 1872.62 113.817 1871.6 114.969C1870.51 116.121 1869.68 117.817 1869.1 120.057C1868.46 122.233 1868.14 124.889 1868.14 128.025C1868.14 131.801 1868.4 134.905 1868.91 137.337C1869.36 139.769 1870 141.561 1870.83 142.713C1871.6 143.865 1872.5 144.441 1873.52 144.441C1874.8 144.441 1875.82 143.705 1876.59 142.233C1877.3 140.761 1877.87 138.777 1878.32 136.281C1878.77 133.785 1879.18 131.001 1879.57 127.929C1879.95 124.793 1880.4 121.561 1880.91 118.233C1881.42 114.841 1882.13 111.609 1883.02 108.537C1883.92 105.401 1885.14 102.585 1886.67 100.089C1888.14 97.5935 1890.06 95.6095 1892.43 94.1375C1894.74 92.6655 1897.58 91.9295 1900.98 91.9295C1906.29 91.9295 1910.58 93.4655 1913.84 96.5375C1917.1 99.6095 1919.47 103.833 1920.94 109.209C1922.42 114.521 1923.15 120.633 1923.15 127.545Z" fill="#0D7BFF"/>
</svg>
