<svg width="360" height="640" viewBox="0 0 360 640" fill="none" xmlns="http://www.w3.org/2000/svg">
<path d="M25.6715 479.688C25.6715 482.824 25.4848 485.755 25.1115 488.48C24.7382 491.205 24.0848 493.595 23.1515 495.648C22.2182 497.701 20.9115 499.307 19.2315 500.464C17.5515 501.621 15.4235 502.2 12.8475 502.2C12.7728 502.2 12.6795 502.2 12.5675 502.2C12.4555 502.2 12.3435 502.181 12.2315 502.144L12.2315 490.944C12.3808 490.981 12.5302 491.019 12.6795 491.056C12.8288 491.056 12.9968 491.056 13.1835 491.056C14.3408 491.056 15.2555 490.627 15.9275 489.768C16.5622 488.872 17.0102 487.64 17.2715 486.072C17.5328 484.504 17.6635 482.656 17.6635 480.528C17.6635 479.669 17.6448 478.792 17.6075 477.896C17.5328 476.963 17.4395 476.067 17.3275 475.208C17.1782 474.349 16.9728 473.584 16.7115 472.912C16.4502 472.203 16.1328 471.661 15.7595 471.288C15.3488 470.877 14.8448 470.672 14.2475 470.672C13.4635 470.672 12.8475 471.101 12.3995 471.96C11.9142 472.781 11.5408 473.939 11.2795 475.432C10.9808 476.888 10.7195 478.531 10.4955 480.36C10.2715 482.152 10.0102 484.019 9.71151 485.96C9.37551 487.901 8.94618 489.787 8.42351 491.616C7.86351 493.445 7.13551 495.088 6.23951 496.544C5.34351 498 4.18618 499.157 2.76751 500.016C1.34884 500.875 -0.36849 501.304 -2.38449 501.304C-4.43782 501.304 -6.19249 500.8 -7.64849 499.792C-9.14182 498.747 -10.3738 497.291 -11.3445 495.424C-12.3152 493.557 -13.0245 491.355 -13.4725 488.816C-13.9578 486.277 -14.2005 483.515 -14.2005 480.528C-14.2005 477.467 -13.9578 474.704 -13.4725 472.24C-12.9872 469.739 -12.2592 467.611 -11.2885 465.856C-10.3552 464.064 -9.16049 462.701 -7.70449 461.768C-6.28582 460.797 -4.60582 460.312 -2.66449 460.312L-1.88049 460.312L-1.88049 471.344L-2.32849 471.344C-3.11249 471.344 -3.80316 471.68 -4.40049 472.352C-5.03516 473.024 -5.52049 474.013 -5.85649 475.32C-6.22982 476.589 -6.41649 478.139 -6.41649 479.968C-6.41649 482.171 -6.26716 483.981 -5.96849 485.4C-5.70716 486.819 -5.33382 487.864 -4.84849 488.536C-4.40049 489.208 -3.87782 489.544 -3.28049 489.544C-2.53382 489.544 -1.93649 489.115 -1.48849 488.256C-1.07782 487.397 -0.741823 486.24 -0.48049 484.784C-0.219157 483.328 0.0235096 481.704 0.247509 479.912C0.471509 478.083 0.732842 476.197 1.03151 474.256C1.33018 472.277 1.74084 470.392 2.26351 468.6C2.78618 466.771 3.49551 465.128 4.39151 463.672C5.25017 462.216 6.37017 461.059 7.75151 460.2C9.09551 459.341 10.7568 458.912 12.7355 458.912C15.8342 458.912 18.3355 459.808 20.2395 461.6C22.1435 463.392 23.5248 465.856 24.3835 468.992C25.2422 472.091 25.6715 475.656 25.6715 479.688ZM24.9995 451.677L-13.5285 451.677L-13.5285 411.581L-5.07249 411.581L-5.07249 440.253L1.42351 440.253L1.42351 415.165L9.59951 415.165L9.59951 440.253L16.5435 440.253L16.5435 411.133L24.9995 411.133L24.9995 451.677ZM24.9995 403.334L-13.5285 403.334L-13.5285 371.302C-13.5285 368.502 -12.9498 366.187 -11.7925 364.358C-10.6352 362.528 -9.1045 361.147 -7.2005 360.214C-5.33383 359.28 -3.2805 358.814 -1.0405 358.814C1.38617 358.814 3.6075 359.392 5.6235 360.55C7.60217 361.707 9.17017 363.443 10.3275 365.758L24.9995 357.918L24.9995 370.798L12.1755 377.182L12.1755 391.966L24.9995 391.966L24.9995 403.334ZM3.77551 391.966L3.77551 375.054C3.77551 373.672 3.36484 372.571 2.5435 371.75C1.72217 370.928 0.620839 370.518 -0.760495 370.518C-1.6565 370.518 -2.42183 370.704 -3.0565 371.078C-3.7285 371.451 -4.2325 371.974 -4.56849 372.646C-4.90449 373.318 -5.07249 374.12 -5.07249 375.054L-5.07249 391.966L3.77551 391.966ZM24.9995 336.931L-13.5285 355.467L-13.5285 342.811L5.2315 334.411C5.94084 334.038 6.83684 333.646 7.9195 333.235C8.96484 332.825 10.0288 332.395 11.1115 331.947C12.1942 331.499 13.1648 331.126 14.0235 330.827L14.0235 330.435C13.2395 330.137 12.3248 329.801 11.2795 329.427C10.2342 329.017 9.18884 328.587 8.1435 328.139C7.06084 327.691 6.09017 327.281 5.2315 326.907L-13.5285 318.395L-13.5285 306.243L24.9995 324.835L24.9995 336.931ZM24.9995 300.795L-13.5285 300.795L-13.5285 289.427L24.9995 289.427L24.9995 300.795ZM25.6715 257.392C25.6715 262.768 24.9248 267.248 23.4315 270.832C21.9008 274.416 19.6608 277.104 16.7115 278.896C13.7622 280.688 10.1035 281.584 5.7355 281.584C-0.6485 281.584 -5.55783 279.531 -8.9925 275.424C-12.4645 271.28 -14.2005 265.251 -14.2005 257.336C-14.2005 252.931 -13.5285 249.048 -12.1845 245.688C-10.8778 242.328 -9.01117 239.715 -6.5845 237.848C-4.19517 235.944 -1.35783 234.992 1.9275 234.992L1.9275 246.08C0.322166 246.08 -1.0405 246.565 -2.1605 247.536C-3.31783 248.469 -4.19517 249.795 -4.7925 251.512C-5.42717 253.229 -5.7445 255.227 -5.7445 257.504C-5.7445 260.192 -5.27783 262.451 -4.3445 264.28C-3.4485 266.109 -2.19783 267.509 -0.5925 268.48C1.01283 269.413 2.8795 269.88 5.0075 269.88L6.4075 269.88C8.5355 269.88 10.4208 269.413 12.0635 268.48C13.6688 267.509 14.9382 266.128 15.8715 264.336C16.7675 262.507 17.2155 260.285 17.2155 257.672C17.2155 255.208 16.9355 253.099 16.3755 251.344C15.7782 249.552 14.9195 248.189 13.7995 247.256C12.6795 246.285 11.3355 245.8 9.7675 245.8L9.7675 234.936C12.9408 234.936 15.7222 235.851 18.1115 237.68C20.5008 239.509 22.3675 242.104 23.7115 245.464C25.0182 248.787 25.6715 252.763 25.6715 257.392ZM24.9995 227.131L-13.5285 227.131L-13.5285 187.035L-5.0725 187.035L-5.0725 215.707L1.4235 215.707L1.4235 190.619L9.5995 190.619L9.5995 215.707L16.5435 215.707L16.5435 186.587L24.9995 186.587L24.9995 227.131ZM25.6715 158.235C25.6715 161.371 25.4848 164.302 25.1115 167.027C24.7382 169.752 24.0848 172.142 23.1515 174.195C22.2182 176.248 20.9115 177.854 19.2315 179.011C17.5515 180.168 15.4235 180.747 12.8475 180.747C12.7728 180.747 12.6795 180.747 12.5675 180.747C12.4555 180.747 12.3435 180.728 12.2315 180.691L12.2315 169.491C12.3808 169.528 12.5302 169.566 12.6795 169.603C12.8288 169.603 12.9968 169.603 13.1835 169.603C14.3408 169.603 15.2555 169.174 15.9275 168.315C16.5622 167.419 17.0102 166.187 17.2715 164.619C17.5328 163.051 17.6635 161.203 17.6635 159.075C17.6635 158.216 17.6448 157.339 17.6075 156.443C17.5328 155.51 17.4395 154.614 17.3275 153.755C17.1782 152.896 16.9728 152.131 16.7115 151.459C16.4502 150.75 16.1328 150.208 15.7595 149.835C15.3488 149.424 14.8448 149.219 14.2475 149.219C13.4635 149.219 12.8475 149.648 12.3995 150.507C11.9142 151.328 11.5408 152.486 11.2795 153.979C10.9808 155.435 10.7195 157.078 10.4955 158.907C10.2715 160.699 10.0102 162.566 9.7115 164.507C9.3755 166.448 8.94616 168.334 8.4235 170.163C7.8635 171.992 7.1355 173.635 6.2395 175.091C5.3435 176.547 4.18616 177.704 2.7675 178.563C1.34883 179.422 -0.368504 179.851 -2.3845 179.851C-4.43784 179.851 -6.1925 179.347 -7.6485 178.339C-9.14184 177.294 -10.3738 175.838 -11.3445 173.971C-12.3152 172.104 -13.0245 169.902 -13.4725 167.363C-13.9578 164.824 -14.2005 162.062 -14.2005 159.075C-14.2005 156.014 -13.9578 153.251 -13.4725 150.787C-12.9872 148.286 -12.2592 146.158 -11.2885 144.403C-10.3552 142.611 -9.16051 141.248 -7.70451 140.315C-6.28584 139.344 -4.60584 138.859 -2.66451 138.859L-1.88051 138.859L-1.8805 149.891L-2.32851 149.891C-3.1125 149.891 -3.80317 150.227 -4.40051 150.899C-5.03517 151.571 -5.52051 152.56 -5.8565 153.867C-6.22984 155.136 -6.41651 156.686 -6.41651 158.515C-6.41651 160.718 -6.26717 162.528 -5.96851 163.947C-5.70717 165.366 -5.33384 166.411 -4.84851 167.083C-4.40051 167.755 -3.87784 168.091 -3.2805 168.091C-2.53384 168.091 -1.9365 167.662 -1.4885 166.803C-1.07784 165.944 -0.741837 164.787 -0.480504 163.331C-0.219171 161.875 0.0234955 160.251 0.247495 158.459C0.471495 156.63 0.732828 154.744 1.03149 152.803C1.33016 150.824 1.74083 148.939 2.2635 147.147C2.78616 145.318 3.49549 143.675 4.39149 142.219C5.25016 140.763 6.37016 139.606 7.75149 138.747C9.09549 137.888 10.7568 137.459 12.7355 137.459C15.8342 137.459 18.3355 138.355 20.2395 140.147C22.1435 141.939 23.5248 144.403 24.3835 147.539C25.2422 150.638 25.6715 154.203 25.6715 158.235Z" fill="#0D7BFF"/>
<path d="M373.672 479.688C373.672 482.824 373.485 485.755 373.112 488.48C372.738 491.205 372.085 493.595 371.152 495.648C370.218 497.701 368.912 499.307 367.232 500.464C365.552 501.621 363.424 502.2 360.848 502.2C360.773 502.2 360.68 502.2 360.568 502.2C360.456 502.2 360.344 502.181 360.232 502.144L360.232 490.944C360.381 490.981 360.53 491.019 360.68 491.056C360.829 491.056 360.997 491.056 361.184 491.056C362.341 491.056 363.256 490.627 363.928 489.768C364.562 488.872 365.01 487.64 365.272 486.072C365.533 484.504 365.664 482.656 365.664 480.528C365.664 479.669 365.645 478.792 365.608 477.896C365.533 476.963 365.44 476.067 365.328 475.208C365.178 474.349 364.973 473.584 364.712 472.912C364.45 472.203 364.133 471.661 363.76 471.288C363.349 470.877 362.845 470.672 362.248 470.672C361.464 470.672 360.848 471.101 360.4 471.96C359.914 472.781 359.541 473.939 359.28 475.432C358.981 476.888 358.72 478.531 358.496 480.36C358.272 482.152 358.01 484.019 357.712 485.96C357.376 487.901 356.946 489.787 356.424 491.616C355.864 493.445 355.136 495.088 354.24 496.544C353.344 498 352.186 499.157 350.768 500.016C349.349 500.875 347.632 501.304 345.616 501.304C343.562 501.304 341.808 500.8 340.352 499.792C338.858 498.747 337.626 497.291 336.656 495.424C335.685 493.557 334.976 491.355 334.528 488.816C334.042 486.277 333.8 483.515 333.8 480.528C333.8 477.467 334.042 474.704 334.528 472.24C335.013 469.739 335.741 467.611 336.712 465.856C337.645 464.064 338.84 462.701 340.296 461.768C341.714 460.797 343.394 460.312 345.336 460.312L346.12 460.312L346.12 471.344L345.672 471.344C344.888 471.344 344.197 471.68 343.6 472.352C342.965 473.024 342.48 474.013 342.144 475.32C341.77 476.589 341.584 478.139 341.584 479.968C341.584 482.171 341.733 483.981 342.032 485.4C342.293 486.819 342.666 487.864 343.152 488.536C343.6 489.208 344.122 489.544 344.72 489.544C345.466 489.544 346.064 489.115 346.512 488.256C346.922 487.397 347.258 486.24 347.52 484.784C347.781 483.328 348.024 481.704 348.248 479.912C348.472 478.083 348.733 476.197 349.032 474.256C349.33 472.277 349.741 470.392 350.264 468.6C350.786 466.771 351.496 465.128 352.392 463.672C353.25 462.216 354.37 461.059 355.752 460.2C357.096 459.341 358.757 458.912 360.736 458.912C363.834 458.912 366.336 459.808 368.24 461.6C370.144 463.392 371.525 465.856 372.384 468.992C373.242 472.091 373.672 475.656 373.672 479.688ZM373 451.677L334.472 451.677L334.472 411.581L342.928 411.581L342.928 440.253L349.424 440.253L349.424 415.165L357.6 415.165L357.6 440.253L364.544 440.253L364.544 411.133L373 411.133L373 451.677ZM373 403.334L334.472 403.334L334.472 371.302C334.472 368.502 335.05 366.187 336.208 364.358C337.365 362.528 338.896 361.147 340.8 360.214C342.666 359.28 344.72 358.814 346.96 358.814C349.386 358.814 351.608 359.392 353.624 360.55C355.602 361.707 357.17 363.443 358.328 365.758L373 357.918L373 370.798L360.176 377.182L360.176 391.966L373 391.966L373 403.334ZM351.776 391.966L351.776 375.054C351.776 373.672 351.365 372.571 350.544 371.75C349.722 370.928 348.621 370.518 347.24 370.518C346.344 370.518 345.578 370.704 344.944 371.078C344.272 371.451 343.768 371.974 343.432 372.646C343.096 373.318 342.928 374.12 342.928 375.054L342.928 391.966L351.776 391.966ZM373 336.931L334.472 355.467L334.472 342.811L353.232 334.411C353.941 334.038 354.837 333.646 355.92 333.235C356.965 332.825 358.029 332.395 359.112 331.947C360.194 331.499 361.165 331.126 362.024 330.827L362.024 330.435C361.24 330.137 360.325 329.801 359.28 329.427C358.234 329.017 357.189 328.587 356.144 328.139C355.061 327.691 354.09 327.281 353.232 326.907L334.472 318.395L334.472 306.243L373 324.835L373 336.931ZM373 300.795L334.472 300.795L334.472 289.427L373 289.427L373 300.795ZM373.672 257.392C373.672 262.768 372.925 267.248 371.432 270.832C369.901 274.416 367.661 277.104 364.712 278.896C361.762 280.688 358.104 281.584 353.736 281.584C347.352 281.584 342.442 279.531 339.007 275.424C335.535 271.28 333.799 265.251 333.799 257.336C333.799 252.931 334.471 249.048 335.815 245.688C337.122 242.328 338.989 239.715 341.415 237.848C343.805 235.944 346.642 234.992 349.927 234.992L349.927 246.08C348.322 246.08 346.959 246.565 345.839 247.536C344.682 248.469 343.805 249.795 343.208 251.512C342.573 253.229 342.255 255.227 342.255 257.504C342.255 260.192 342.722 262.451 343.655 264.28C344.552 266.109 345.802 267.509 347.408 268.48C349.013 269.413 350.879 269.88 353.008 269.88L354.408 269.88C356.536 269.88 358.421 269.413 360.064 268.48C361.669 267.509 362.938 266.128 363.872 264.336C364.768 262.507 365.216 260.285 365.216 257.672C365.216 255.208 364.935 253.099 364.375 251.344C363.778 249.552 362.92 248.189 361.8 247.256C360.68 246.285 359.335 245.8 357.767 245.8L357.767 234.936C360.941 234.936 363.722 235.851 366.111 237.68C368.501 239.509 370.368 242.104 371.712 245.464C373.018 248.787 373.672 252.763 373.672 257.392ZM372.999 227.131L334.471 227.131L334.471 187.035L342.927 187.035L342.927 215.707L349.423 215.707L349.423 190.619L357.599 190.619L357.599 215.707L364.543 215.707L364.543 186.587L372.999 186.587L372.999 227.131ZM373.671 158.235C373.671 161.371 373.485 164.302 373.111 167.027C372.738 169.752 372.085 172.142 371.151 174.195C370.218 176.248 368.911 177.854 367.231 179.011C365.551 180.168 363.423 180.747 360.847 180.747C360.773 180.747 360.679 180.747 360.567 180.747C360.455 180.747 360.343 180.728 360.231 180.691L360.231 169.491C360.381 169.528 360.53 169.566 360.679 169.603C360.829 169.603 360.997 169.603 361.183 169.603C362.341 169.603 363.255 169.174 363.927 168.315C364.562 167.419 365.01 166.187 365.271 164.619C365.533 163.051 365.663 161.203 365.663 159.075C365.663 158.216 365.645 157.339 365.607 156.443C365.533 155.51 365.439 154.614 365.327 153.755C365.178 152.896 364.973 152.131 364.711 151.459C364.45 150.75 364.133 150.208 363.759 149.835C363.349 149.424 362.845 149.219 362.247 149.219C361.463 149.219 360.847 149.648 360.399 150.507C359.914 151.328 359.541 152.486 359.279 153.979C358.981 155.435 358.719 157.078 358.495 158.907C358.271 160.699 358.01 162.566 357.711 164.507C357.375 166.448 356.946 168.334 356.423 170.163C355.863 171.992 355.135 173.635 354.239 175.091C353.343 176.547 352.186 177.704 350.767 178.563C349.349 179.422 347.631 179.851 345.615 179.851C343.562 179.851 341.807 179.347 340.351 178.339C338.858 177.294 337.626 175.838 336.655 173.971C335.685 172.104 334.975 169.902 334.527 167.363C334.042 164.824 333.799 162.062 333.799 159.075C333.799 156.014 334.042 153.251 334.527 150.787C335.013 148.286 335.741 146.158 336.711 144.403C337.645 142.611 338.839 141.248 340.295 140.315C341.714 139.344 343.394 138.859 345.335 138.859L346.119 138.859L346.119 149.891L345.671 149.891C344.887 149.891 344.197 150.227 343.599 150.899C342.965 151.571 342.479 152.56 342.143 153.867C341.77 155.136 341.583 156.686 341.583 158.515C341.583 160.718 341.733 162.528 342.031 163.947C342.293 165.366 342.666 166.411 343.151 167.083C343.599 167.755 344.122 168.091 344.719 168.091C345.466 168.091 346.063 167.662 346.511 166.803C346.922 165.944 347.258 164.787 347.519 163.331C347.781 161.875 348.023 160.251 348.247 158.459C348.471 156.63 348.733 154.744 349.031 152.803C349.33 150.824 349.741 148.939 350.263 147.147C350.786 145.318 351.495 143.675 352.391 142.219C353.25 140.763 354.37 139.606 355.751 138.747C357.095 137.888 358.757 137.459 360.735 137.459C363.834 137.459 366.335 138.355 368.239 140.147C370.143 141.939 371.525 144.403 372.383 147.539C373.242 150.638 373.671 154.203 373.671 158.235Z" fill="#0D7BFF"/>
</svg>
