<svg width="116" height="64" viewBox="0 0 116 64" fill="none" xmlns="http://www.w3.org/2000/svg">
<path d="M90.5 18.5L74.5 9V31.5H90.5V18.5Z" fill="#3F8CFF"/>
<path d="M27 45L43 54.5L43 32L27 32L27 45Z" fill="#3F8CFF"/>
<path d="M73.6953 9.15662V32" stroke="black" stroke-width="4" stroke-linejoin="round"/>
<path d="M89.5117 18.7419V32.0081" stroke="black" stroke-width="4" stroke-linejoin="round"/>
<path d="M42.0623 54.8434V32" stroke="black" stroke-width="4" stroke-linejoin="round"/>
<path d="M26.2457 44.802V32" stroke="black" stroke-width="4" stroke-linejoin="round"/>
<path d="M91.4296 20.5864L113.798 43.4177" stroke="black" stroke-width="4" stroke-linejoin="round"/>
<path d="M1.95947 20.5864L24.3319 43.4177" stroke="black" stroke-width="4" stroke-linejoin="round"/>
<path d="M57.8788 6.40007V32H102.624L91.4375 20.5864C87.0355 16.0815 81.8045 12.509 76.0453 10.0745C70.2862 7.63988 64.1123 6.39115 57.8788 6.40007Z" stroke="black" stroke-width="4"/>
<path d="M13.1417 32L24.3319 43.4177C28.7332 47.9211 33.9629 51.4923 39.7207 53.9262C45.4785 56.3601 51.6507 57.6086 57.8827 57.6V32H13.1417Z" stroke="black" stroke-width="4"/>
<path d="M57.8788 32H102.624L91.4375 20.5864C87.0364 16.0824 81.8067 12.5106 76.049 10.076C70.2913 7.64145 64.1189 6.39221 57.8867 6.40006" stroke="black" stroke-width="4" stroke-linejoin="round"/>
<path d="M13.1417 32L24.3319 43.4177C28.7332 47.9211 33.9629 51.4923 39.7207 53.9262C45.4785 56.3601 51.6507 57.6086 57.8827 57.6" stroke="black" stroke-width="4" stroke-linejoin="round"/>
</svg>
